<svg xmlns="http://www.w3.org/2000/svg" width="1022" height="26" viewBox="0 0 1022 26">
  <g id="Group_1375" data-name="Group 1375" transform="translate(-188 -750)">
    <rect id="Rectangle_567" data-name="Rectangle 567" width="10" height="26" rx="5" transform="translate(188 750)" fill="#ddd"/>
    <rect id="Rectangle_567-2" data-name="Rectangle 567" width="10" height="26" rx="5" transform="translate(234 750)" fill="#ddd"/>
    <rect id="Rectangle_567-3" data-name="Rectangle 567" width="10" height="26" rx="5" transform="translate(280 750)" fill="#ddd"/>
    <rect id="Rectangle_567-4" data-name="Rectangle 567" width="10" height="26" rx="5" transform="translate(326 750)" fill="#ddd"/>
    <rect id="Rectangle_567-5" data-name="Rectangle 567" width="10" height="26" rx="5" transform="translate(372 750)" fill="#ddd"/>
    <rect id="Rectangle_567-6" data-name="Rectangle 567" width="10" height="26" rx="5" transform="translate(418 750)" fill="#ddd"/>
    <rect id="Rectangle_567-7" data-name="Rectangle 567" width="10" height="26" rx="5" transform="translate(464 750)" fill="#ddd"/>
    <rect id="Rectangle_567-8" data-name="Rectangle 567" width="10" height="26" rx="5" transform="translate(510 750)" fill="#ddd"/>
    <rect id="Rectangle_567-9" data-name="Rectangle 567" width="10" height="26" rx="5" transform="translate(556 750)" fill="#ddd"/>
    <rect id="Rectangle_567-10" data-name="Rectangle 567" width="10" height="26" rx="5" transform="translate(602 750)" fill="#ddd"/>
    <rect id="Rectangle_567-11" data-name="Rectangle 567" width="10" height="26" rx="5" transform="translate(648 750)" fill="#ddd"/>
    <rect id="Rectangle_567-12" data-name="Rectangle 567" width="10" height="26" rx="5" transform="translate(694 750)" fill="#ddd"/>
    <rect id="Rectangle_567-13" data-name="Rectangle 567" width="10" height="26" rx="5" transform="translate(740 750)" fill="#ddd"/>
    <rect id="Rectangle_567-14" data-name="Rectangle 567" width="10" height="26" rx="5" transform="translate(786 750)" fill="#ddd"/>
    <rect id="Rectangle_567-15" data-name="Rectangle 567" width="10" height="26" rx="5" transform="translate(832 750)" fill="#ddd"/>
    <rect id="Rectangle_567-16" data-name="Rectangle 567" width="10" height="26" rx="5" transform="translate(878 750)" fill="#ddd"/>
    <rect id="Rectangle_567-17" data-name="Rectangle 567" width="10" height="26" rx="5" transform="translate(924 750)" fill="#ddd"/>
    <rect id="Rectangle_567-18" data-name="Rectangle 567" width="10" height="26" rx="5" transform="translate(970 750)" fill="#ddd"/>
    <rect id="Rectangle_567-19" data-name="Rectangle 567" width="10" height="26" rx="5" transform="translate(1016 750)" fill="#ddd"/>
    <rect id="Rectangle_567-20" data-name="Rectangle 567" width="10" height="26" rx="5" transform="translate(1062 750)" fill="#ddd"/>
    <rect id="Rectangle_567-21" data-name="Rectangle 567" width="10" height="26" rx="5" transform="translate(1108 750)" fill="#ddd"/>
    <rect id="Rectangle_567-22" data-name="Rectangle 567" width="10" height="26" rx="5" transform="translate(1154 750)" fill="#ddd"/>
    <rect id="Rectangle_567-23" data-name="Rectangle 567" width="10" height="26" rx="5" transform="translate(1200 750)" fill="#ddd"/>
  </g>
</svg>
